 <svg version="1.0" xmlns="http://www.w3.org/2000/svg" width="700.000000pt" height="336.000000pt" viewBox="0 0 700.000000 336.000000" preserveAspectRatio="xMidYMid meet">
<metadata>
Created by potrace 1.12, written by Peter Selinger 2001-2015
</metadata>
<g transform="translate(0.000000,336.000000) scale(0.100000,-0.100000)" fill="#000000" stroke="none">
<path d="M694 2539 c-3 -6 -2 -21 4 -32 36 -80 102 -354 152 -637 97 -551 119
-635 163 -644 36 -8 568 -16 1082 -17 360 -1 488 2 510 11 105 44 180 94 256
173 49 50 119 157 119 181 0 6 4 16 9 21 39 40 65 330 46 513 -7 68 -9 73 -39
86 -61 26 -92 38 -136 53 -25 8 -58 21 -75 28 -31 12 -81 32 -157 61 -24 9
-50 20 -58 24 -9 4 -30 11 -48 14 -17 4 -34 12 -37 17 -4 5 -13 9 -21 9 -8 0
-37 11 -66 25 -28 14 -57 25 -63 25 -9 0 -12 -57 -12 -217 1 -170 -3 -237 -17
-306 -38 -189 -95 -314 -185 -404 -62 -63 -159 -133 -183 -133 -8 0 -18 -4
-24 -10 -15 -15 -99 -31 -191 -37 -226 -14 -467 132 -555 337 -97 224 -102
366 -17 531 24 47 115 158 137 167 10 3 46 30 82 59 36 29 71 53 78 53 18 0
15 17 -5 25 -10 4 -56 9 -103 11 -47 2 -110 6 -140 9 -134 11 -499 14 -506 4z"></path>
<path d="M1653 392 c-58 -24 -80 -47 -98 -103 -14 -41 -15 -55 -4 -86 16 -52
44 -84 87 -105 71 -33 139 -15 192 52 60 76 30 199 -57 235 -58 24 -75 25
-120 7z"></path>
<path d="M2363 392 c-56 -23 -77 -45 -98 -98 -29 -76 3 -154 80 -195 68 -37
146 -15 196 54 89 123 -39 295 -178 239z"></path>
</g>
</svg>